<svg version="1.1" id="Layer_1" xmlns="http://www.w3.org/2000/svg" xmlns:xlink="http://www.w3.org/1999/xlink" x="0px" y="0px"
	 viewBox="0 0 192.1 201" style="enable-background:new 0 0 192.1 201;" xml:space="preserve">
<style type="text/css">
	.st0{fill:#469EA2;}
	.st1{fill:#6ACAD1;}
	.st2{fill:#083B54;fill-opacity:0.15;}
	.st3{fill:#083B54;fill-opacity:5.000000e-02;}
</style>
<path class="st0" d="M11.5,148.8l84,48.5l84-48.5v-97l-84-48.5l-84,48.5C11.5,51.8,11.5,148.8,11.5,148.8z"/>
<path class="st1" d="M86.9,14.9l-61,35.2c0.1,1.1,0.1,2.2,0,3.3l60.9,35.2c5.1-3.8,12.2-3.8,17.3,0L165,53.4c-0.1-1.1-0.1-2.2,0-3.3
	l-60.8-35.2C99.1,18.7,92,18.7,86.9,14.9z M170.9,63.1l-61,35.6c0.7,6.3-2.8,12.4-8.6,15l0.1,70c1,0.4,1.9,1,2.8,1.6l60.9-35.2
	c-0.7-6.3,2.8-12.4,8.6-15V64.7C172.7,64.2,171.8,63.7,170.9,63.1z M20.1,63.5c-0.9,0.6-1.8,1.2-2.8,1.6v70.4
	c5.9,2.5,9.4,8.6,8.6,15l60.9,35.2c0.9-0.6,1.8-1.2,2.8-1.6v-70.4c-5.9-2.5-9.4-8.6-8.6-15C81,98.7,20.1,63.5,20.1,63.5z"/>
<path class="st0" d="M95.5,13.8l75.1,43.4v86.7l-75.1,43.4l-75.1-43.4V57.1L95.5,13.8 M95.5,3.5L11.5,52v97l84,48.5l84-48.5V52
	C179.5,52,95.5,3.5,95.5,3.5z"/>
<path class="st0" d="M96.1,116.8h-1.2c-8.6,0-15.7-7-15.7-15.6c0,0,0-0.1,0-0.1v-1.2c0-8.6,7-15.7,15.6-15.7c0,0,0.1,0,0.1,0h1.2
	c8.6,0,15.7,7,15.7,15.6c0,0,0,0.1,0,0.1v1.2C111.8,109.7,104.8,116.7,96.1,116.8C96.2,116.8,96.1,116.8,96.1,116.8z M96.1,181.3
	h-1.2c-5.7,0-10.9,3-13.7,8l14.3,8.2l14.3-8.2C107,184.3,101.8,181.2,96.1,181.3z M179.6,132.8H179c-8.6,0-15.7,7-15.7,15.6
	c0,0,0,0.1,0,0.1v1.2c0,2.7,0.7,5.3,2,7.6l14.3-8.3V132.8z M165.3,43.8c-1.3,2.3-2,4.9-2,7.6v1.2c0,8.6,7,15.7,15.6,15.7
	c0,0,0.1,0,0.1,0h0.6V52L165.3,43.8L165.3,43.8z M95.5,3.5l-14.3,8.2c2.8,5,8,8.1,13.7,8.1h1.2c5.7,0,10.9-3,13.7-8L95.5,3.5z
	 M25.8,43.7L11.5,52v16.3h0.6c8.6,0,15.7-7,15.7-15.6c0,0,0-0.1,0-0.1v-1.2C27.8,48.7,27.1,46,25.8,43.7z M12.1,132.8h-0.6V149
	l14.3,8.3c1.3-2.3,2-4.9,2-7.6v-1.2C27.8,139.8,20.8,132.8,12.1,132.8C12.2,132.8,12.1,132.8,12.1,132.8z"/>
<path class="st2" d="M95.5,198v-97.1l-84-48.5v97.1L95.5,198z"/>
<path class="st3" d="M179.6,148.6v-97l-84,48.5v97.1L179.6,148.6z"/>
</svg>
